<svg width="132" height="26" viewBox="0 0 132 26" fill="none" xmlns="http://www.w3.org/2000/svg">
<path d="M19.9081 0.86177C19.9081 0.585628 20.132 0.361771 20.4081 0.361771H23.3882C23.6643 0.361771 23.8882 0.585628 23.8882 0.86177V2.4697C23.8882 2.77437 24.4458 2.89672 24.6118 2.64127C24.9495 2.13471 25.3716 1.68847 25.8782 1.30252C26.4089 0.916577 27.036 0.602986 27.7597 0.361771C28.4833 0.120554 29.3276 -4.57764e-05 30.2924 -4.57764e-05C31.4503 -4.57764e-05 32.4996 0.180855 33.4403 0.542679C34.4052 0.88038 35.2253 1.41106 35.9007 2.1347C36.6002 2.85835 37.143 3.78706 37.5289 4.92077C37.9148 6.05448 38.1078 7.41735 38.1078 9.00937C38.1078 10.7944 37.9148 12.314 37.5289 13.5683C37.143 14.7985 36.5882 15.8116 35.8645 16.6077C35.165 17.3795 34.3087 17.9464 33.2956 18.3082C32.2825 18.6701 31.1608 18.851 29.9306 18.851C28.4833 18.851 27.2652 18.5374 26.2762 17.9102C25.9453 17.6952 25.6442 17.4673 25.3729 17.2267C24.985 16.8827 24.1414 17.1536 24.1414 17.6722V24.9361C24.1414 25.2123 23.9176 25.4361 23.6414 25.4361H20.4081C20.132 25.4361 19.9081 25.2123 19.9081 24.9361V0.86177ZM24.1414 10.0225C24.1414 11.6627 24.5756 12.9291 25.444 13.8216C26.3124 14.69 27.4943 15.1242 28.9899 15.1242C30.7025 15.1242 31.9448 14.6779 32.7167 13.7854C33.4885 12.8688 33.8745 11.3371 33.8745 9.19028C33.8745 7.21232 33.4282 5.81326 32.5357 4.99313C31.6674 4.173 30.5095 3.76292 29.0622 3.76292C27.3979 3.76292 26.1677 4.19711 25.3716 5.06549C24.5998 5.93386 24.1897 7.1279 24.1414 8.64756V10.0225Z" fill="#0A1400"/>
<path d="M87.2394 18.8949C85.8162 18.8949 84.5378 18.7019 83.4041 18.3159C82.2703 17.9059 81.2934 17.3028 80.4733 16.5068C79.6532 15.7108 79.026 14.7218 78.5918 13.5399C78.1576 12.3579 77.9405 10.9709 77.9405 9.37891C77.9405 7.81101 78.1697 6.44814 78.628 5.29031C79.0863 4.10835 79.7255 3.13142 80.5456 2.35953C81.3658 1.56352 82.3548 0.972537 83.5126 0.586592C84.6704 0.200647 85.9609 0.007689 87.3841 0.007689C88.7832 0.007689 90.0496 0.212719 91.1833 0.622786C92.3411 1.03285 93.318 1.63589 94.114 2.4319C94.9342 3.22791 95.5613 4.2169 95.9955 5.39886C96.4297 6.58082 96.6468 7.95574 96.6468 9.52364C96.6468 11.0915 96.4176 12.4665 95.9593 13.6484C95.501 14.8063 94.8618 15.7711 94.0417 16.543C93.2215 17.3149 92.2325 17.9059 91.0747 18.3159C89.9169 18.7019 88.6384 18.8949 87.2394 18.8949ZM82.2462 9.48746C82.2462 11.4896 82.6925 12.9489 83.585 13.8655C84.4775 14.758 85.7197 15.2042 87.3117 15.2042C88.9279 15.2042 90.1702 14.746 91.0385 13.8293C91.9069 12.8886 92.3411 11.4534 92.3411 9.52364V9.41509C92.3411 7.413 91.8828 5.96572 90.9662 5.07322C90.0737 4.1566 88.8314 3.6983 87.2394 3.6983C85.6232 3.72242 84.381 4.20484 83.5126 5.14558C82.6684 6.0622 82.2462 7.47331 82.2462 9.37891V9.48746Z" fill="black"/>
<path d="M116.768 1.87616C116.768 1.7199 116.84 1.57137 116.969 1.48358C117.552 1.08811 118.317 0.750363 119.265 0.470322C120.35 0.156741 121.677 -4.57764e-05 123.245 -4.57764e-05C125.898 -4.57764e-05 127.876 0.494445 129.179 1.48343C130.481 2.47241 131.133 4.14887 131.133 6.51278V17.9529C131.133 18.2291 130.909 18.4529 130.633 18.4529H127.653C127.376 18.4529 127.152 18.2291 127.152 17.9529V17.7393C127.152 17.191 126.082 16.8729 125.662 17.2254C125.432 17.4189 125.181 17.5989 124.909 17.7655C123.872 18.4168 122.63 18.7424 121.182 18.7424C119.349 18.7424 117.914 18.26 116.877 17.2951C115.864 16.3061 115.357 14.9191 115.357 13.1341C115.357 12.0969 115.538 11.2406 115.9 10.5652C116.262 9.8898 116.768 9.35913 117.419 8.97318C118.071 8.56311 118.855 8.27365 119.771 8.1048C120.688 7.93595 121.701 7.85154 122.811 7.85154H126.399C126.675 7.85154 126.899 7.62768 126.899 7.35154V7.05551C126.899 5.77707 126.586 4.89663 125.958 4.4142C125.355 3.93176 124.451 3.69056 123.245 3.69056C121.58 3.69056 120.242 3.99208 119.229 4.59512C118.718 4.88679 118.257 5.22745 117.844 5.61709C117.482 5.95888 116.768 5.72182 116.768 5.2241V1.87616ZM122.521 14.9433C123.245 14.9433 123.86 14.8588 124.366 14.69C124.897 14.497 125.343 14.2679 125.705 14.0025C126.067 13.7131 126.344 13.3995 126.537 13.0618C126.723 12.7376 126.841 12.4245 126.893 12.1226C126.897 12.0975 126.899 12.0721 126.899 12.0466V11.1014C126.899 10.8252 126.675 10.6014 126.399 10.6014H123.317C122.063 10.6014 121.134 10.7461 120.531 11.0356C119.928 11.325 119.627 11.8798 119.627 12.7C119.627 13.3995 119.868 13.9543 120.35 14.3644C120.857 14.7503 121.58 14.9433 122.521 14.9433Z" fill="#0A1400"/>
<path d="M0.604553 0.861768C0.604553 0.585625 0.828411 0.361768 1.10455 0.361768H4.33788C4.61403 0.361768 4.83788 0.585625 4.83788 0.861768V6.91733C4.83788 7.19347 5.06174 7.41733 5.33788 7.41733H7.5121C7.67315 7.41733 7.82434 7.33976 7.91827 7.20894L12.6846 0.570157C12.7785 0.439334 12.9297 0.361768 13.0907 0.361768H16.5446C16.9554 0.361768 17.1909 0.82962 16.9463 1.15957L11.4309 8.59753C11.2978 8.777 11.2999 9.023 11.4361 9.20013L17.9322 17.6482C18.185 17.977 17.9506 18.4529 17.5358 18.4529H13.6614C13.505 18.4529 13.3576 18.3797 13.263 18.2551L7.88252 11.161C7.78799 11.0364 7.64058 10.9632 7.48415 10.9632H5.33788C5.06174 10.9632 4.83788 11.1871 4.83788 11.4632V17.9529C4.83788 18.2291 4.61403 18.4529 4.33788 18.4529H1.10455C0.828411 18.4529 0.604553 18.2291 0.604553 17.9529V9.40737V0.861768Z" fill="#6D5B8C"/>
<path d="M70.094 4.09623C70.094 3.82009 66.8926 9.86946 66.6164 9.86946H66.1164C65.8403 9.86946 62.2063 3.82009 62.2063 4.09623V17.4606C62.2063 17.7368 61.9824 17.9606 61.7063 17.9606H58.473C58.1969 17.9606 57.973 17.7368 57.973 17.4606V0.869443C57.973 0.5933 58.1969 0.369443 58.4731 0.369443C59.8886 0.369443 61.235 0.369443 61.7936 0.369443C61.9437 0.369443 62.0855 0.436849 62.1805 0.553053L65.7313 4.89817C65.9307 5.14216 66.3033 5.14313 66.504 4.90016L70.0956 0.551059C70.1906 0.436043 70.3315 0.369443 70.4807 0.369443C71.134 0.369443 72.8854 0.369443 73.8282 0.369443C74.1043 0.369443 74.3274 0.5933 74.3274 0.869443V17.4606C74.3274 17.7368 74.1035 17.9606 73.8274 17.9606H70.594C70.3179 17.9606 70.094 17.7368 70.094 17.4606V4.09623Z" fill="#0A1400"/>
<path d="M99.7346 1.22065C99.7346 0.944511 99.9585 0.720654 100.235 0.720654H103.468C103.744 0.720654 103.968 0.944511 103.968 1.22065V7.27621C103.968 7.55235 104.192 7.77621 104.468 7.77621H106.642C106.803 7.77621 107.048 7.70943 107.048 7.23802V1.22065C107.048 0.921287 107.548 0.720654 107.735 0.720654H110.235C110.645 0.720654 111.062 0.819195 111.062 1.31919V9.79927V18.2207C111.062 18.7207 110.884 18.8118 110.469 18.8118L107.735 18.7993C107.37 18.7993 107.203 18.6062 107.103 18.4533C107.043 18.362 107.013 18.2528 107.013 18.1437V11.6881C107.013 11.579 106.981 11.4657 106.891 11.4054C106.81 11.3517 106.714 11.3221 106.614 11.3221H104.468C104.192 11.3221 103.968 11.5459 103.968 11.8221V18.3118C103.968 18.588 103.744 18.8118 103.468 18.8118H100.235C99.9585 18.8118 99.7346 18.588 99.7346 18.3118V1.22065Z" fill="#0A1400"/>
<path d="M54.7451 17.2342C54.7451 17.3904 54.673 17.539 54.5438 17.6268C53.9615 18.0222 53.1964 18.36 52.2486 18.64C51.1631 18.9536 49.8364 19.1104 48.2685 19.1104C45.6151 19.1104 43.6372 18.6159 42.3346 17.6269C41.032 16.6379 40.3808 14.9615 40.3808 12.5976V7.05359C40.3808 7.03486 40.3816 7.01754 40.3839 6.99895C40.4203 6.70244 40.7789 3.99621 41.8808 2.73074C42.8283 1.64247 45.1228 0.820814 45.3607 0.737675C45.375 0.732672 45.3885 0.728855 45.4033 0.725301C46.6469 0.425519 47.1956 0.377223 47.3402 0.369443C47.3673 0.367982 47.394 0.365763 47.4208 0.361783C47.6683 0.325148 49.02 0.145021 50.3309 0.367947C52.0658 0.662967 53.0566 1.14552 54.0938 2.11038C55.107 3.09936 55.6135 4.26357 55.6135 6.04856C55.6135 7.08579 55.5181 8.43498 55.1562 9.11038C54.7944 9.78578 54.7451 9.75123 54.0938 10.1372C53.4426 10.5472 52.6586 10.8367 51.742 11.0055C50.8254 11.1744 49.8123 11.2588 48.7027 11.2588H45.1141C44.838 11.2588 44.6141 11.4827 44.6141 11.7588V12.0548C44.6141 13.3333 44.9277 14.2137 45.5548 14.6961C46.1579 15.1786 47.0624 15.4198 48.2685 15.4198C49.9329 15.4198 51.2716 15.1183 52.2847 14.5152C52.7952 14.2235 53.2566 13.8829 53.6691 13.4932C54.0309 13.1515 54.7451 13.3885 54.7451 13.8862V17.2342ZM48.9921 4.16708C48.2685 4.16708 47.6534 4.25151 47.1468 4.42036C46.6162 4.61333 46.1699 4.84249 45.8081 5.10783C45.4463 5.39729 45.1689 5.71086 44.9759 6.04856C44.7907 6.37274 44.6721 6.6858 44.6202 6.98775C44.6159 7.01283 44.6141 7.03825 44.6141 7.06371V8.00897C44.6141 8.28512 44.838 8.50897 45.1141 8.50897H48.1961C49.4504 8.50897 50.3791 8.36424 50.9822 8.07479C51.5852 7.78533 51.8867 7.23051 51.8867 6.41038C51.8867 5.71085 51.6455 5.15606 51.1631 4.746C50.6565 4.36005 49.9329 4.16708 48.9921 4.16708Z" fill="#0A1400"/>
</svg>
